<svg xmlns="http://www.w3.org/2000/svg" viewBox="0 0 316.92 286.35"><defs><style>.cls-1{fill:none;stroke:#231f20;stroke-width:6px;}.cls-1,.cls-2,.cls-6{stroke-miterlimit:10;}.cls-2{fill:#231f20;}.cls-2,.cls-6{stroke:#fff;}.cls-3,.cls-6{font-size:28px;font-family:BebasKai, Bebas Kai;}.cls-3{fill:#fff;}.cls-4{letter-spacing:-0.03em;}.cls-5{letter-spacing:0em;}.cls-6{fill:#020202;}.cls-7{letter-spacing:0em;}.cls-8{letter-spacing:0em;}.cls-9{letter-spacing:-0.02em;}.cls-10{fill:#4c4c4d;}</style></defs><title>bob</title><g id="Layer_2" data-name="Layer 2"><g id="Layer_1-2" data-name="Layer 1"><line class="cls-1" x1="101.92" y1="103.61" x2="101.92" y2="138.74"/><polygon class="cls-2" points="101.43 109.22 80.51 109.22 90.97 91.1 101.43 72.99 111.89 91.1 122.35 109.22 101.43 109.22"/><line class="cls-1" x1="102.41" y1="254.73" x2="102.41" y2="219.6"/><polygon class="cls-2" points="102.89 249.12 123.81 249.12 113.35 267.24 102.89 285.35 92.44 267.24 81.98 249.12 102.89 249.12"/><rect class="cls-2" x="0.5" y="161.62" width="207.07" height="34.34" rx="12"/><text class="cls-3" transform="translate(75.2 186.89)">s<tspan class="cls-4" x="10.02" y="0">p</tspan><tspan class="cls-5" x="20.52" y="0">a</tspan><tspan x="32" y="0">ce</tspan></text><text class="cls-6" transform="translate(143.83 23.89) rotate(11.75)">Change eye <tspan class="cls-7" x="114.07" y="0">c</tspan><tspan x="125.52" y="0">o</tspan><tspan class="cls-8" x="137.67" y="0">l</tspan><tspan x="147.44" y="0">o</tspan><tspan class="cls-9" x="159.6" y="0">r</tspan></text><path class="cls-10" d="M133.66,91.67c9.79-8.36,20.12-16,30.6-23.51,4.86-3.47,9.72-6.95,14.66-10.32,2.67-1.83,5.37-3.62,8-5.46,2.09-1.44,4.7-4,7.21-4.51,3.15-.65,1.82-5.47-1.32-4.82-5,1.05-9.86,6-14,8.84-5.75,3.89-11.41,7.92-17.06,12-10.83,7.72-21.5,15.65-31.61,24.29-2.45,2.09,1.1,5.61,3.53,3.53Z"/></g></g></svg>