<svg xmlns="http://www.w3.org/2000/svg" viewBox="0 0 315.26 50.28"><defs><style>.cls-1{fill:#f6a29e;}</style></defs><title>chin</title><g id="Layer_2" data-name="Layer 2"><g id="Layer_2-2" data-name="Layer 2"><path class="cls-1" d="M.08,15C5,24,11.55,32.31,20,38.17a69.42,69.42,0,0,0,42,12c16-.64,32.13-7,47.57-11q18.18-4.71,36.74-7.69a85,85,0,0,1,17.27-1.43,94.46,94.46,0,0,1,13.77,2L207.48,38c10.62,2.09,21.32,4.19,32.14,4.29A87.84,87.84,0,0,0,283,30.92C295.33,24,309.8,13.59,315.26,0c-3.83.75-6.89,3.94-9.8,6.3-3.75,3.05-7.68,5.88-11.69,8.57-12,8.1-24.21,14.71-38.61,17.2a113,113,0,0,1-43.23-1.39c-18.55-4-36-8.88-55-8.88-8.35,0-17.31,2.18-25.48,3.79-11.29,2.23-22.36,5.37-33.42,8.48-22.82,6.42-44.23,12.65-66.59,1.2C22.61,30.74,14.68,24.65,7,18.39a14.55,14.55,0,0,0-7-3.54Z"/></g></g></svg>